<?xml version="1.0" standalone="no"?><!DOCTYPE svg PUBLIC "-//W3C//DTD SVG 1.1//EN" "http://www.w3.org/Graphics/SVG/1.1/DTD/svg11.dtd"><svg t="1679747294489" class="icon" viewBox="0 0 1024 1024" version="1.1" xmlns="http://www.w3.org/2000/svg" p-id="6827" xmlns:xlink="http://www.w3.org/1999/xlink" width="55" height="55"><path d="M586.424 0C557.44 0 531.952 11.792 512 34.248 492.048 11.792 466.56 0 437.576 0c-58.552 0-104.424 48.664-104.424 110.792 0 65.208 50.704 108 120.88 167.232 12.24 10.328 24.904 21.016 38.32 32.64 5.64 4.896 12.64 7.336 19.648 7.336 7.008 0 14.008-2.44 19.648-7.328 13.416-11.632 26.08-22.32 38.32-32.656 65.072-54.92 120.88-99.624 120.88-167.224C690.848 48.664 644.976 0 586.424 0z m-55.152 232.16c-6.296 5.32-12.696 10.72-19.28 16.32a6454.4 6454.4 0 0 0-19.264-16.304c-67.248-56.76-99.576-85.632-99.576-121.384 0-25.24 15.264-50.792 44.424-50.792 32.216 0 44.672 39.704 45.536 42.592A29.872 29.872 0 0 0 512 124.896a29.872 29.872 0 0 0 28.888-22.304c0.864-2.888 13.32-42.592 45.536-42.592 29.16 0 44.424 25.552 44.424 50.792 0 37.248-37.832 69.264-99.576 121.376z m462.728 611.84a30 30 0 0 1 30 30v120a30 30 0 0 1-60 0v-30H904v30a30 30 0 0 1-60 0v-30h-62v30A30 30 0 0 1 752 1024H272a30 30 0 0 1-30-30v-30H180v30a30 30 0 0 1-60 0v-30H60v30a30 30 0 0 1-60 0v-120a30 30 0 0 1 60 0V904H120v-30a30 30 0 0 1 60 0V904h62V776.904c-34.096 12.08-75.064 2.824-100.272-28.696a89.896 89.896 0 0 1 14.08-126.496l299.888-241.904c33.192-26.544 79.416-26.544 112.512-0.08l300.096 242.08c38.664 30.872 45.112 87.512 13.96 126.408a89.76 89.76 0 0 1-100.264 28.608V904h62v-30a30 30 0 0 1 60 0V904h60v-30a30 30 0 0 1 30-30z m-452 120v-120h-60v120h60z m180 0V735.248L512 567.264 302 735.248V964h120v-150A30 30 0 0 1 452 784h120a30 30 0 0 1 30 30v150h120zM530.736 505.424l262.536 210a29.944 29.944 0 0 0 42.128-4.672 29.928 29.928 0 0 0-4.648-42.16L530.632 426.504a29.808 29.808 0 0 0-37.368 0.08L193.36 668.504a29.936 29.936 0 0 0-4.8 42.216 29.944 29.944 0 0 0 42.144 4.72l262.552-210.016a30 30 0 0 1 37.472 0z" fill="#4A90E2" p-id="6828"></path></svg>